<?xml version="1.0" encoding="UTF-8" standalone="no"?>
<!DOCTYPE svg PUBLIC "-//W3C//DTD SVG 1.1//EN" "http://www.w3.org/Graphics/SVG/1.1/DTD/svg11.dtd">
<svg width="100%" height="100%" viewBox="0 0 17 16" version="1.1" xmlns="http://www.w3.org/2000/svg" xmlns:xlink="http://www.w3.org/1999/xlink" xml:space="preserve" xmlns:serif="http://www.serif.com/" style="fill-rule:evenodd;clip-rule:evenodd;stroke-linejoin:round;stroke-miterlimit:2;">
    <g transform="matrix(0.0267859,0,0,0.0267859,5.78573,5.78577)">
        <g transform="matrix(1,0,0,1,-248,-248.001)">
            <path d="M467.301,168.084C465.496,168.084 463.785,168.413 462.231,169.046L459.95,170.196L288.475,259.134L284.587,261.13C284.587,261.13 284.535,261.153 284.535,261.177C276.975,265.845 272,273.683 272,282.602L272,468.456C272,474.838 277.649,480 284.69,480C286.792,480.001 288.867,479.521 290.755,478.596C290.91,478.501 291.118,478.408 291.274,478.314L466.005,385.62L466.264,385.479C474.505,380.975 479.999,372.737 479.999,363.374L479.999,179.582C480,173.223 474.299,168.084 467.301,168.084Z" style="fill:rgb(48,60,66);fill-rule:nonzero;"/>
        </g>
        <g transform="matrix(1,0,0,1,-248,-248.001)">
            <path d="M419.089,393.338C419.089,397.218 416.813,400.631 413.399,402.497L413.291,402.555L340.895,440.961C340.831,441 340.745,441.039 340.68,441.078C339.898,441.461 339.039,441.66 338.168,441.66C335.25,441.66 332.91,439.521 332.91,436.877L332.91,306.872C332.91,303.177 334.971,299.929 338.103,297.995C338.103,297.985 338.125,297.976 338.125,297.976L339.736,297.149L410.782,260.299L411.728,259.823C412.371,259.561 413.08,259.424 413.828,259.424C416.728,259.424 419.09,261.554 419.089,264.188L419.089,393.338Z" style="fill:rgb(164,171,186);fill-rule:nonzero;"/>
        </g>
        <g transform="matrix(1,0,0,1,-248,-248.001)">
            <path d="M454.273,118.521L272.573,36.79C272.573,36.79 261.914,32 255.996,32C250.078,32 239.47,36.79 239.47,36.79L57.614,118.521C57.614,118.521 49.625,121.813 49.625,128C49.625,134.562 57.925,139.5 57.925,139.5L240.507,235.871L243.409,237.35C247.193,239.037 251.486,239.999 255.996,239.999C260.557,239.999 264.911,239.036 268.738,237.303L271.277,235.988L454.17,139.452C454.17,139.452 461.678,135.416 461.678,127.999C461.678,121.5 454.273,118.521 454.273,118.521Z" style="fill:rgb(48,60,66);fill-rule:nonzero;"/>
        </g>
        <g transform="matrix(1,0,0,1,-248,-248.001)">
            <path d="M227.466,261.178L223.474,259.135L52.042,170.197L49.762,169.047C48.267,168.413 46.504,168.085 44.691,168.085C37.694,168.085 32.001,173.223 32.001,179.582L32.001,363.374C32.001,372.762 37.486,380.976 45.728,385.479L45.936,385.62L220.675,478.314C222.593,479.394 224.874,480.001 227.311,480.001C234.3,480.001 240.001,474.839 240.001,468.457L240.001,282.603C240,273.684 235.024,265.846 227.466,261.178Z" style="fill:rgb(48,60,66);fill-rule:nonzero;"/>
        </g>
    </g>
    <g transform="matrix(1.66667,0,0,1.6666,-7.33332,-8.99893)">
        <rect x="12" y="12" width="1" height="3" style="fill:rgb(164,171,186);"/>
    </g>
    <g transform="matrix(1.02054e-16,1.6666,-1.66667,1.0205e-16,36,-7.33233)">
        <rect x="12" y="12" width="1" height="3" style="fill:rgb(164,171,186);"/>
    </g>
</svg>
